<?xml version="1.0" encoding="UTF-8"?>
<svg width="59px" height="59px" viewBox="0 0 59 59" version="1.1" xmlns="http://www.w3.org/2000/svg" xmlns:xlink="http://www.w3.org/1999/xlink">
    <!-- Generator: Sketch 51 (57462) - http://www.bohemiancoding.com/sketch -->
    <title>icon_search</title>
    <desc>Created with Sketch.</desc>
    <defs></defs>
    <g id="Page-1" stroke="none" stroke-width="1" fill="none" fill-rule="evenodd">
        <g id="谷歌结果页" transform="translate(-1328.000000, -100.000000)" fill="#4285F4" fill-rule="nonzero">
            <g id="SearchBarArea">
                <g id="SearchBar" transform="translate(80.000000, 59.000000)">
                    <g id="icon_search" transform="translate(1248.000000, 41.000000)">
                        <path d="M41.80839,36.7913832 L39.1660998,36.7913832 L38.2295918,35.888322 C41.6206605,31.9550616 43.4844125,26.9336152 43.4807256,21.7403628 C43.4807256,9.73349198 33.7472336,-2.08248636e-15 21.7403628,8.8817842e-16 C9.73349198,3.8588432e-15 -1.77635684e-15,9.73349198 -1.77635684e-15,21.7403628 C-3.26168923e-15,33.7472336 9.73349198,43.4807256 21.7403628,43.4807256 C27.1252834,43.4807256 32.0753968,41.5073696 35.888322,38.2295918 L36.7913832,39.1660998 L36.7913832,41.80839 L53.5147392,58.4982993 L58.4982993,53.5147392 L41.80839,36.7913832 Z M21.7403628,36.7913832 C13.4121315,36.7913832 6.6893424,30.0685941 6.6893424,21.7403628 C6.6893424,13.4121315 13.4121315,6.6893424 21.7403628,6.6893424 C30.0685941,6.6893424 36.7913832,13.4121315 36.7913832,21.7403628 C36.7913832,30.0685941 30.0685941,36.7913832 21.7403628,36.7913832 Z" id="Shape"></path>
                    </g>
                </g>
            </g>
        </g>
    </g>
</svg>